<svg xmlns="http://www.w3.org/2000/svg" viewBox="0 0 1000 600" width="1000" height="600" role="img" aria-labelledby="rht rhd"><title id="rht">Rear hub types compared</title><desc id="rhd">Upper half sections through the drive side of freewheel, cassette and freecoaster rear hubs, showing the threaded interface, the splined driver, and the deliberate slack gap in a freecoaster.</desc><defs><pattern id="hatch" width="16" height="16" patternUnits="userSpaceOnUse" patternTransform="rotate(45)"><rect width="16" height="16" fill="#ffffff"></rect><line x1="0" y1="0" x2="0" y2="16" stroke="#08090b" stroke-width="2"></line></pattern></defs><rect width="1000" height="600" fill="#ffffff"></rect><line x1="333" y1="40" x2="333" y2="560" stroke="#e2e5e9" stroke-width="2"></line><line x1="666" y1="40" x2="666" y2="560" stroke="#e2e5e9" stroke-width="2"></line><g><text x="28" y="66" font-family="system-ui, -apple-system, BlinkMacSystemFont, 'Segoe UI', Roboto, sans-serif" font-size="44" font-weight="700" fill="#08090b" letter-spacing="1">Freewheel</text><line x1="12" y1="428" x2="324" y2="428" stroke="#6b7280" stroke-width="1.6" stroke-dasharray="22 8 4 8"></line><rect x="28" y="407.3" width="281" height="20.69999999999999" fill="#08090b"></rect><rect x="36" y="324.5" width="58" height="82.80000000000001" fill="#00a4e6"></rect><circle cx="65" cy="365.9" r="17" fill="#fff"></circle><rect x="28" y="278.5" width="134" height="46" fill="url(#hatch)" stroke="#08090b" stroke-width="3"></rect><path d="M 28 278.5 L 19 290.9583333333333 L 28 303.4166666666667 L 37 315.875 L 28 328.3333333333333 L 19 340.7916666666667 L 28 353.25 L 37 365.70833333333337 L 28 378.1666666666667 L 19 390.625 L 28 403.08333333333337 L 37 415.5416666666667 L 28 428" fill="none" stroke="#08090b" stroke-width="2.5"></path><rect x="162" y="322.2" width="104" height="27.600000000000023" fill="url(#hatch)" stroke="#08090b" stroke-width="3"></rect><rect x="156" y="209.50000000000003" width="124" height="112.69999999999996" fill="#00a4e6"></rect><path d="M 156 209.50000000000003 L 166.33333333333334 184.20000000000002 L 176.66666666666666 209.50000000000003 L 187 184.20000000000002 L 197.33333333333334 209.50000000000003 L 207.66666666666669 184.20000000000002 L 218 209.50000000000003 L 228.33333333333334 184.20000000000002 L 238.66666666666669 209.50000000000003 L 249 184.20000000000002 L 259.33333333333337 209.50000000000003 L 269.6666666666667 184.20000000000002 L 280 209.50000000000003 Z" fill="#00a4e6"></path><path d="M 168 294.6 L 180.5 313 L 193 294.6 L 205.5 313 L 218 294.6 L 230.5 313 L 243 294.6 L 255.5 313 L 268 294.6 Z" fill="#08090b"></path><path d="M 164 322.2 L 173 313.2 L 182 322.2 L 191 313.2 L 200 322.2 L 209 313.2 L 218 322.2 L 227 313.2 L 236 322.2 L 245 313.2 L 254 322.2" fill="none" stroke="#08090b" stroke-width="2.5" stroke-linejoin="round"></path><rect x="156" y="313" width="124" height="13.800000000000011" fill="none" stroke="#e64700" stroke-width="3"></rect><text x="218" y="154.3" font-family="system-ui, -apple-system, BlinkMacSystemFont, 'Segoe UI', Roboto, sans-serif" font-size="32" font-weight="700" fill="#e64700" text-anchor="middle">thread</text><line x1="218" y1="163.5" x2="218" y2="181.9" stroke="#e64700" stroke-width="2.5"></line><text x="28" y="514" font-family="system-ui, -apple-system, BlinkMacSystemFont, 'Segoe UI', Roboto, sans-serif" font-size="32" font-weight="500" fill="#6b7280">threads onto the</text><text x="28" y="552" font-family="system-ui, -apple-system, BlinkMacSystemFont, 'Segoe UI', Roboto, sans-serif" font-size="32" font-weight="500" fill="#6b7280">hub shell</text></g><g><text x="361" y="66" font-family="system-ui, -apple-system, BlinkMacSystemFont, 'Segoe UI', Roboto, sans-serif" font-size="44" font-weight="700" fill="#08090b" letter-spacing="1">Cassette</text><line x1="345" y1="428" x2="657" y2="428" stroke="#6b7280" stroke-width="1.6" stroke-dasharray="22 8 4 8"></line><rect x="361" y="407.3" width="281" height="20.69999999999999" fill="#08090b"></rect><rect x="369" y="324.5" width="58" height="82.80000000000001" fill="#00a4e6"></rect><circle cx="398" cy="365.9" r="17" fill="#fff"></circle><rect x="361" y="278.5" width="150" height="46" fill="url(#hatch)" stroke="#08090b" stroke-width="3"></rect><path d="M 361 278.5 L 352 290.9583333333333 L 361 303.4166666666667 L 370 315.875 L 361 328.3333333333333 L 352 340.7916666666667 L 361 353.25 L 370 365.70833333333337 L 361 378.1666666666667 L 352 390.625 L 361 403.08333333333337 L 370 415.5416666666667 L 361 428" fill="none" stroke="#08090b" stroke-width="2.5"></path><path d="M 445 324.5 L 456 345.2 L 467 324.5 L 478 345.2 L 489 324.5 L 500 345.2 L 511 324.5 Z" fill="#08090b"></path><rect x="479" y="331.4" width="128" height="57.5" fill="#00a4e6"></rect><rect x="607" y="230.20000000000002" width="28" height="158.69999999999996" fill="#00a4e6"></rect><path d="M 607 230.20000000000002 L 621 202.6 L 635 230.20000000000002 Z" fill="#00a4e6"></path><rect x="529" y="319.9" width="9" height="11.5" fill="#08090b"></rect><rect x="545" y="319.9" width="9" height="11.5" fill="#08090b"></rect><rect x="561" y="319.9" width="9" height="11.5" fill="#08090b"></rect><rect x="577" y="319.9" width="9" height="11.5" fill="#08090b"></rect><rect x="593" y="319.9" width="9" height="11.5" fill="#08090b"></rect><polygon points="487,331.4 517,331.4 487,296.9" fill="#e64700"></polygon><text x="557" y="154.3" font-family="system-ui, -apple-system, BlinkMacSystemFont, 'Segoe UI', Roboto, sans-serif" font-size="32" font-weight="700" fill="#00a4e6" text-anchor="middle">splined driver</text><line x1="557" y1="163.5" x2="557" y2="306.1" stroke="#00a4e6" stroke-width="2.5"></line><text x="361" y="514" font-family="system-ui, -apple-system, BlinkMacSystemFont, 'Segoe UI', Roboto, sans-serif" font-size="32" font-weight="500" fill="#6b7280">ratchet inside the</text><text x="361" y="552" font-family="system-ui, -apple-system, BlinkMacSystemFont, 'Segoe UI', Roboto, sans-serif" font-size="32" font-weight="500" fill="#6b7280">hub, splined driver</text></g><g><text x="694" y="66" font-family="system-ui, -apple-system, BlinkMacSystemFont, 'Segoe UI', Roboto, sans-serif" font-size="44" font-weight="700" fill="#08090b" letter-spacing="1">Freecoaster</text><line x1="678" y1="428" x2="990" y2="428" stroke="#6b7280" stroke-width="1.6" stroke-dasharray="22 8 4 8"></line><rect x="694" y="407.3" width="281" height="20.69999999999999" fill="#08090b"></rect><rect x="702" y="324.5" width="58" height="82.80000000000001" fill="#00a4e6"></rect><circle cx="731" cy="365.9" r="17" fill="#fff"></circle><rect x="694" y="278.5" width="150" height="46" fill="url(#hatch)" stroke="#08090b" stroke-width="3"></rect><path d="M 694 278.5 L 685 290.9583333333333 L 694 303.4166666666667 L 703 315.875 L 694 328.3333333333333 L 685 340.7916666666667 L 694 353.25 L 703 365.70833333333337 L 694 378.1666666666667 L 685 390.625 L 694 403.08333333333337 L 703 415.5416666666667 L 694 428" fill="none" stroke="#08090b" stroke-width="2.5"></path><path d="M 778 324.5 L 789 345.2 L 800 324.5 L 811 345.2 L 822 324.5 L 833 345.2 L 844 324.5 Z" fill="#08090b"></path><rect x="844" y="331.4" width="96" height="57.5" fill="#00a4e6"></rect><rect x="940" y="230.20000000000002" width="28" height="158.69999999999996" fill="#00a4e6"></rect><path d="M 940 230.20000000000002 L 954 202.6 L 968 230.20000000000002 Z" fill="#00a4e6"></path><rect x="862" y="319.9" width="9" height="11.5" fill="#08090b"></rect><rect x="878" y="319.9" width="9" height="11.5" fill="#08090b"></rect><rect x="894" y="319.9" width="9" height="11.5" fill="#08090b"></rect><rect x="910" y="319.9" width="9" height="11.5" fill="#08090b"></rect><rect x="926" y="319.9" width="9" height="11.5" fill="#08090b"></rect><rect x="790" y="324.5" width="54" height="64.39999999999998" fill="#00a4e6" stroke="#08090b" stroke-width="2.5"></rect><rect x="892" y="324.5" width="18" height="64.39999999999998" fill="#08090b"></rect><rect x="844" y="324.5" width="48" height="64.39999999999998" fill="#e64700" fill-opacity="0.18"></rect><line x1="844" y1="324.5" x2="844" y2="255.5" stroke="#e64700" stroke-width="2"></line><line x1="892" y1="324.5" x2="892" y2="255.5" stroke="#e64700" stroke-width="2"></line><line x1="820" y1="267" x2="916" y2="267" stroke="#e64700" stroke-width="3"></line><polygon points="844,267 862,257.8 862,276.20000000000005" fill="#e64700"></polygon><polygon points="892,267 874,257.8 874,276.20000000000005" fill="#e64700"></polygon><text x="868" y="237.10000000000002" font-family="system-ui, -apple-system, BlinkMacSystemFont, 'Segoe UI', Roboto, sans-serif" font-size="32" font-weight="700" fill="#e64700" text-anchor="middle">slack</text><line x1="934" y1="154.3" x2="764" y2="154.3" stroke="#e64700" stroke-width="3"></line><polygon points="750,154.3 768,145.10000000000002 768,163.5" fill="#e64700"></polygon><text x="846" y="131.3" font-family="system-ui, -apple-system, BlinkMacSystemFont, 'Segoe UI', Roboto, sans-serif" font-size="30" font-weight="700" fill="#e64700" text-anchor="middle">free travel</text><text x="694" y="514" font-family="system-ui, -apple-system, BlinkMacSystemFont, 'Segoe UI', Roboto, sans-serif" font-size="32" font-weight="500" fill="#6b7280">clutch and slack,</text><text x="694" y="552" font-family="system-ui, -apple-system, BlinkMacSystemFont, 'Segoe UI', Roboto, sans-serif" font-size="32" font-weight="500" fill="#6b7280">coasts backwards</text></g></svg>