<svg xmlns="http://www.w3.org/2000/svg" viewBox="0 0 1000 640" width="1000" height="640" role="img" aria-labelledby="ubt ubd"><title id="ubt">How a U-brake pulls</title><desc id="ubd">Front view of a U-brake with the arms crossing over their posts, the straddle cable forming a triangle up to the yoke, and arrows showing the direction of force at the yoke, along each straddle leg and inward at each pad.</desc><defs><pattern id="hatch" width="16" height="16" patternUnits="userSpaceOnUse" patternTransform="rotate(45)"><rect width="16" height="16" fill="#ffffff"></rect><line x1="0" y1="0" x2="0" y2="16" stroke="#08090b" stroke-width="2"></line></pattern></defs><rect width="1000" height="640" fill="#ffffff"></rect><rect x="448" y="240" width="104" height="360" rx="14" fill="none" stroke="#e2e5e9" stroke-width="3"></rect><rect x="466" y="330" width="68" height="270" fill="#e2e5e9"></rect><line x1="500" y1="240" x2="500" y2="600" stroke="#ffffff" stroke-width="2" stroke-dasharray="16 10"></line><path d="M 340 560 L 505 508 L 600 300" fill="none" stroke="#08090b" stroke-width="17" stroke-linecap="round" stroke-linejoin="round"></path><path d="M 660 560 L 495 508 L 400 300" fill="none" stroke="#08090b" stroke-width="17" stroke-linecap="round" stroke-linejoin="round"></path><circle cx="340" cy="560" r="20" fill="#ffffff" stroke="#08090b" stroke-width="7"></circle><circle cx="660" cy="560" r="20" fill="#ffffff" stroke="#08090b" stroke-width="7"></circle><rect x="524" y="412" width="24" height="50" rx="4" fill="#00a4e6"></rect><rect x="452" y="412" width="24" height="50" rx="4" fill="#00a4e6"></rect><path d="M 400 300 L 500 205 L 600 300" fill="none" stroke="#08090b" stroke-width="7"></path><polygon points="500,188 524,214 476,214" fill="#08090b"></polygon><line x1="500" y1="188" x2="500" y2="68" stroke="#08090b" stroke-width="8"></line><line x1="556.0" y1="250.0" x2="556.0" y2="132.4" stroke="#e64700" stroke-width="3.5"></line><polygon points="556.0,118.0 565.0,136.0 547.0,136.0" fill="#e64700"></polygon><line x1="372.0" y1="268.0" x2="451.6" y2="191.9" stroke="#e64700" stroke-width="3.5"></line><polygon points="462.0,182.0 455.2,200.9 442.8,187.9" fill="#e64700"></polygon><line x1="628.0" y1="268.0" x2="548.4" y2="191.9" stroke="#e64700" stroke-width="3.5"></line><polygon points="538.0,182.0 557.2,187.9 544.8,200.9" fill="#e64700"></polygon><line x1="392.0" y1="437.0" x2="429.6" y2="437.0" stroke="#e64700" stroke-width="3.5"></line><polygon points="444.0,437.0 426.0,446.0 426.0,428.0" fill="#e64700"></polygon><line x1="608.0" y1="437.0" x2="570.4" y2="437.0" stroke="#e64700" stroke-width="3.5"></line><polygon points="556.0,437.0 574.0,428.0 574.0,446.0" fill="#e64700"></polygon><text x="452" y="198" font-family="system-ui, -apple-system, BlinkMacSystemFont, 'Segoe UI', Roboto, sans-serif" font-size="32" font-weight="700" fill="#08090b" text-anchor="end">Yoke</text><line x1="460" y1="190" x2="482" y2="198" stroke="#6b7280" stroke-width="2"></line><text x="700" y="250" font-family="system-ui, -apple-system, BlinkMacSystemFont, 'Segoe UI', Roboto, sans-serif" font-size="32" font-weight="700" fill="#08090b">Straddle cable</text><line x1="692" y1="240" x2="572" y2="234" stroke="#6b7280" stroke-width="2"></line><text x="60" y="470" font-family="system-ui, -apple-system, BlinkMacSystemFont, 'Segoe UI', Roboto, sans-serif" font-size="32" font-weight="700" fill="#08090b">Arms cross over</text><line x1="316" y1="478" x2="474" y2="502" stroke="#6b7280" stroke-width="2"></line><text x="420" y="500" font-family="system-ui, -apple-system, BlinkMacSystemFont, 'Segoe UI', Roboto, sans-serif" font-size="32" font-weight="700" fill="#08090b" text-anchor="end">Pad</text><line x1="426" y1="492" x2="450" y2="464" stroke="#6b7280" stroke-width="2"></line><text x="580" y="500" font-family="system-ui, -apple-system, BlinkMacSystemFont, 'Segoe UI', Roboto, sans-serif" font-size="32" font-weight="700" fill="#08090b">Pad</text><line x1="574" y1="492" x2="550" y2="464" stroke="#6b7280" stroke-width="2"></line><text x="340" y="616" font-family="system-ui, -apple-system, BlinkMacSystemFont, 'Segoe UI', Roboto, sans-serif" font-size="32" font-weight="700" fill="#08090b" text-anchor="middle">Post</text><text x="660" y="616" font-family="system-ui, -apple-system, BlinkMacSystemFont, 'Segoe UI', Roboto, sans-serif" font-size="32" font-weight="700" fill="#08090b" text-anchor="middle">Post</text></svg>